<?xml version="1.0" encoding="UTF-8" standalone="no"?>
<!DOCTYPE svg PUBLIC "-//W3C//DTD SVG 1.1//EN" "http://www.w3.org/Graphics/SVG/1.1/DTD/svg11.dtd">
<svg xmlns="http://www.w3.org/2000/svg" version="1.1" viewBox="0 0 500 500">
<path fill="#03a0c0" d="M 281.75,111.29 Q 281.56,111.23 281.42,111.26 A 0.22,0.16 -13.9 0 1 281.15,111.15 Q 280.70,108.48 278.58,106.93 Q 277.77,106.34 277.32,105.67 Q 276.82,104.91 276.25,104.21 Q 277.96,103.05 279.93,102.42 Q 281.61,101.88 280.59,101.26 Q 280.25,101.06 279.72,101.07 Q 272.98,101.18 266.25,101.54 L 252.50,102.04 Q 251.86,99.95 252.88,97.98 A 0.73,0.44 -8.1 0 1 253.25,97.68 Q 253.63,97.53 252.75,97.29 Q 268.53,94.09 284.42,96.66 Q 290.17,97.59 295.47,99.98 Q 296.65,100.52 297.44,101.57 A 0.80,0.80 61.4 0 1 297.08,102.81 Q 291.42,104.86 286.06,107.56 Q 284.60,108.30 281.75,111.29 Z"/>
<path fill="#04c2d9" d="M 252.75,97.29 Q 253.63,97.53 253.25,97.68 A 0.73,0.44 -8.1 0 0 252.88,97.98 Q 251.86,99.95 252.50,102.04 Q 246.40,103.07 240.96,106.00 L 230.25,111.46 Q 221.34,115.21 214.75,122.21 L 213.75,123.04 Q 212.50,122.79 211.56,123.56 Q 209.62,125.15 208.04,127.07 Q 207.30,127.97 205.43,131.27 Q 203.50,134.67 201.19,136.44 Q 200.16,137.22 200.21,136.00 Q 205.10,124.40 213.00,116.75 Q 229.26,100.99 252.75,97.29 Z"/>
<path fill="#02ebe4" d="M 276.25,104.21 Q 267.26,109.03 261.90,118.09 A 0.57,0.56 27.8 0 1 261.17,118.31 Q 254.73,115.13 247.50,114.93 Q 239.72,114.72 234.54,121.18 A 0.64,0.64 24.0 0 0 234.94,122.21 Q 240.55,123.12 246.20,124.46 Q 256.24,126.83 262.09,134.19 Q 266.53,139.77 268.08,148.85 Q 269.38,156.53 268.75,165.00 Q 268.69,165.80 268.29,165.75 Q 264.67,159.79 259.00,155.71 Q 256.86,153.13 252.44,151.06 Q 239.29,144.93 225.87,146.46 Q 223.13,146.77 221.81,145.87 Q 219.81,144.50 219.75,141.75 Q 219.64,136.91 217.52,133.43 Q 217.34,133.12 217.31,132.51 Q 217.29,131.86 216.50,131.96 Q 217.32,130.81 218.36,129.86 Q 219.06,129.22 218.36,129.22 A 1.04,0.70 -58.0 0 0 217.75,129.49 L 214.71,132.25 L 213.04,133.75 Q 212.53,132.22 211.25,131.21 L 216.50,126.71 Q 223.59,120.35 231.79,115.50 L 242.04,109.00 Q 243.71,107.73 244.00,108.83 A 0.89,0.58 -32.0 0 1 243.64,109.60 L 238.91,113.46 Q 237.86,114.32 239.24,114.21 Q 240.03,114.15 240.89,113.58 Q 242.14,112.75 242.32,112.65 Q 254.22,106.26 265.19,102.94 Q 266.41,102.56 266.25,101.54 Q 272.98,101.18 279.72,101.07 Q 280.25,101.06 280.59,101.26 Q 281.61,101.88 279.93,102.42 Q 277.96,103.05 276.25,104.21 Z"/>
<path fill="#6eeaf9" d="M 266.25,101.54 Q 266.41,102.56 265.19,102.94 Q 254.22,106.26 242.32,112.65 Q 242.14,112.75 240.89,113.58 Q 240.03,114.15 239.24,114.21 Q 237.86,114.32 238.91,113.46 L 243.64,109.60 A 0.89,0.58 -32.0 0 0 244.00,108.83 Q 243.71,107.73 242.04,109.00 Q 239.95,108.02 240.96,106.00 Q 246.40,103.07 252.50,102.04 L 266.25,101.54 Z"/>
<path fill="#0273a1" d="M 276.25,104.21 Q 276.82,104.91 277.32,105.67 Q 277.77,106.34 278.58,106.93 Q 280.70,108.48 281.15,111.15 A 0.22,0.16 -13.9 0 0 281.42,111.26 Q 281.56,111.23 281.75,111.29 Q 276.66,117.08 275.75,124.25 Q 274.76,132.07 275.41,140.79 Q 275.75,145.44 275.75,148.23 Q 275.75,151.94 275.75,155.66 Q 275.75,161.37 275.09,165.30 Q 274.30,169.98 272.93,174.76 A 2.28,2.27 -59.3 0 0 273.49,176.97 Q 275.98,179.55 277.00,182.21 L 276.75,182.29 Q 275.77,182.29 273.75,183.25 Q 260.69,189.47 257.50,191.21 Q 257.03,190.40 256.24,190.79 A 1.30,1.26 -49.2 0 1 255.34,190.87 Q 254.10,190.53 252.44,191.69 Q 248.33,194.53 235.29,201.75 Q 234.43,197.81 231.00,195.71 Q 236.95,189.67 238.51,181.47 Q 239.14,178.17 239.14,177.67 Q 239.15,175.39 236.94,174.11 Q 236.90,174.08 236.55,173.95 Q 236.14,173.80 236.04,173.25 Q 237.17,167.77 234.67,163.47 Q 233.65,161.70 231.85,161.78 L 221.50,162.21 Q 221.74,161.58 221.56,161.15 A 0.97,0.50 60.0 0 1 221.52,160.34 Q 222.88,158.38 225.00,157.29 Q 240.64,153.57 254.85,160.73 Q 263.00,164.83 265.00,173.77 Q 265.42,175.62 265.95,173.79 L 268.29,165.75 Q 268.69,165.80 268.75,165.00 Q 269.38,156.53 268.08,148.85 Q 266.53,139.77 262.09,134.19 Q 256.24,126.83 246.20,124.46 Q 240.55,123.12 234.94,122.21 A 0.64,0.64 24.0 0 1 234.54,121.18 Q 239.72,114.72 247.50,114.93 Q 254.73,115.13 261.17,118.31 A 0.57,0.56 27.8 0 0 261.90,118.09 Q 267.26,109.03 276.25,104.21 Z"/>
<path fill="#5cfafa" d="M 240.96,106.00 Q 239.95,108.02 242.04,109.00 L 231.79,115.50 Q 232.31,112.96 230.25,111.46 L 240.96,106.00 Z"/>
<path fill="#77f3fc" d="M 230.25,111.46 Q 232.31,112.96 231.79,115.50 Q 223.59,120.35 216.50,126.71 Q 218.43,122.92 214.75,122.21 Q 221.34,115.21 230.25,111.46 Z"/>
<path fill="#92eaf3" d="M 214.75,122.21 Q 218.43,122.92 216.50,126.71 L 211.25,131.21 L 208.07,133.02 Q 206.81,133.74 207.50,132.46 Q 210.32,127.23 213.75,123.04 L 214.75,122.21 Z"/>
<path fill="#048ab3" d="M 213.75,123.04 Q 210.32,127.23 207.50,132.46 Q 206.81,133.74 208.07,133.02 L 211.25,131.21 Q 212.53,132.22 213.04,133.75 Q 205.11,140.85 203.42,151.27 Q 203.39,151.45 202.64,154.53 Q 202.14,156.62 202.71,158.75 L 202.34,165.43 Q 202.31,165.86 202.53,165.48 Q 203.17,164.33 204.50,164.25 A 1.34,1.17 16.5 0 0 205.33,163.87 Q 207.60,161.36 211.04,161.75 Q 209.60,164.70 209.95,167.89 Q 209.99,168.23 209.91,168.60 Q 209.57,170.15 210.96,168.75 L 208.30,175.11 Q 207.45,177.12 205.43,177.21 Q 200.66,177.42 200.27,173.94 Q 200.00,171.64 199.99,171.59 Q 197.81,161.53 197.27,151.25 Q 196.86,143.23 200.21,136.00 Q 200.16,137.22 201.19,136.44 Q 203.50,134.67 205.43,131.27 Q 207.30,127.97 208.04,127.07 Q 209.62,125.15 211.56,123.56 Q 212.50,122.79 213.75,123.04 Z"/>
<path fill="#79eaf0" d="M 216.50,131.96 L 215.00,133.29 Q 214.60,132.86 214.71,132.25 L 217.75,129.49 A 1.04,0.70 -58.0 0 1 218.36,129.22 Q 219.06,129.22 218.36,129.86 Q 217.32,130.81 216.50,131.96 Z"/>
<path fill="#02a5bf" d="M 216.50,131.96 Q 217.29,131.86 217.31,132.51 Q 217.34,133.12 217.52,133.43 Q 219.64,136.91 219.75,141.75 Q 219.81,144.50 221.81,145.87 Q 223.13,146.77 225.87,146.46 Q 239.29,144.93 252.44,151.06 Q 256.86,153.13 259.00,155.71 Q 258.48,155.88 257.81,155.44 Q 245.42,147.14 230.00,149.00 Q 224.85,149.62 219.50,152.79 Q 214.49,156.53 211.04,161.75 Q 207.60,161.36 205.33,163.87 A 1.34,1.17 16.5 0 1 204.50,164.25 Q 203.17,164.33 202.53,165.48 Q 202.31,165.86 202.34,165.43 L 202.71,158.75 Q 204.69,143.95 215.00,133.29 L 216.50,131.96 Z"/>
<path fill="#4af0f1" d="M 214.71,132.25 Q 214.60,132.86 215.00,133.29 Q 204.69,143.95 202.71,158.75 Q 202.14,156.62 202.64,154.53 Q 203.39,151.45 203.42,151.27 Q 205.11,140.85 213.04,133.75 L 214.71,132.25 Z"/>
<path fill="#033878" d="M 259.00,155.71 Q 264.67,159.79 268.29,165.75 L 265.95,173.79 Q 265.42,175.62 265.00,173.77 Q 263.00,164.83 254.85,160.73 Q 240.64,153.57 225.00,157.29 Q 224.38,157.35 223.80,157.20 Q 223.13,157.02 222.65,157.03 Q 218.51,157.08 219.50,152.79 Q 224.85,149.62 230.00,149.00 Q 245.42,147.14 257.81,155.44 Q 258.48,155.88 259.00,155.71 Z"/>
<path fill="#045a91" d="M 219.50,152.79 Q 218.51,157.08 222.65,157.03 Q 223.13,157.02 223.80,157.20 Q 224.38,157.35 225.00,157.29 Q 222.88,158.38 221.52,160.34 A 0.97,0.50 60.0 0 0 221.56,161.15 Q 221.74,161.58 221.50,162.21 Q 219.50,162.87 217.47,163.41 Q 213.00,164.60 210.96,168.75 Q 209.57,170.15 209.91,168.60 Q 209.99,168.23 209.95,167.89 Q 209.60,164.70 211.04,161.75 Q 214.49,156.53 219.50,152.79 Z"/>
<path fill="#033878" d="M 236.04,173.25 Q 236.14,173.80 236.55,173.95 Q 236.90,174.08 236.94,174.11 Q 239.15,175.39 239.14,177.67 Q 239.14,178.17 238.51,181.47 Q 236.95,189.67 231.00,195.71 L 219.54,203.44 A 1.19,1.14 51.8 0 1 218.01,203.22 Q 210.40,194.66 200.25,192.29 Q 195.91,191.48 190.56,191.44 Q 189.77,191.43 189.25,190.71 Q 199.28,189.69 208.06,192.94 Q 210.41,193.81 211.88,194.32 Q 213.86,195.00 215.83,194.81 Q 219.57,194.45 223.06,193.17 Q 226.62,191.87 229.19,189.24 Q 235.49,182.81 236.04,173.25 Z"/>
<path fill="#02b3d7" d="M 331.00,191.46 Q 330.83,192.04 330.99,192.60 A 1.31,0.89 58.9 0 1 330.94,193.51 Q 328.72,197.45 325.73,200.80 Q 324.05,202.68 323.17,204.44 Q 322.17,206.46 321.21,208.50 Q 317.69,204.17 313.29,200.75 Q 310.46,198.48 307.04,197.25 Q 301.15,194.23 294.75,192.54 Q 282.67,189.16 269.00,188.50 Q 268.17,188.46 268.00,187.54 Q 272.20,185.41 276.25,183.00 Q 276.98,183.00 276.75,182.29 L 277.00,182.21 Q 278.56,182.47 280.31,181.56 Q 288.32,177.44 297.39,177.05 Q 304.05,176.77 309.21,177.82 Q 315.05,179.02 320.31,182.44 Q 326.50,186.45 331.00,191.46 Z"/>
<path fill="#f5fbfc" d="M 276.75,182.29 Q 276.98,183.00 276.25,183.00 Q 272.20,185.41 268.00,187.54 L 258.25,192.54 L 240.71,202.25 Q 219.05,216.17 200.36,233.29 Q 199.04,234.50 199.00,236.30 Q 198.89,242.54 199.21,248.59 Q 199.25,249.23 199.59,249.80 Q 199.94,250.37 200.25,250.96 L 199.25,251.21 L 196.25,248.71 Q 197.94,245.44 197.52,241.75 Q 197.02,237.30 198.04,233.00 Q 218.29,215.54 240.61,200.84 Q 244.13,198.52 249.00,195.91 Q 253.28,193.61 257.50,191.21 Q 260.69,189.47 273.75,183.25 Q 275.77,182.29 276.75,182.29 Z"/>
<path fill="#39e7ed" d="M 268.00,187.54 Q 268.17,188.46 269.00,188.50 Q 282.67,189.16 294.75,192.54 L 293.81,199.19 A 0.68,0.51 -0.2 0 1 293.20,199.65 Q 292.52,199.71 292.24,200.38 Q 292.04,200.83 292.20,201.76 Q 292.75,205.05 291.23,208.06 A 1.35,0.69 -10.1 0 1 290.52,208.60 Q 289.66,208.93 290.00,210.21 L 280.04,211.25 Q 279.16,199.49 267.55,198.24 A 0.39,0.29 -78.1 0 1 267.34,197.77 Q 267.46,197.28 266.19,197.31 Q 264.13,197.36 258.81,194.19 Q 258.00,193.71 258.25,192.54 L 268.00,187.54 Z"/>
<path fill="#064778" d="M 257.50,191.21 Q 253.28,193.61 249.00,195.91 Q 244.13,198.52 240.61,200.84 Q 218.29,215.54 198.04,233.00 Q 198.07,232.58 197.75,232.46 L 196.71,229.50 Q 201.37,225.09 206.75,221.54 Q 213.61,217.37 219.79,212.25 L 235.29,201.75 Q 248.33,194.53 252.44,191.69 Q 254.10,190.53 255.34,190.87 A 1.30,1.26 -49.2 0 0 256.24,190.79 Q 257.03,190.40 257.50,191.21 Z"/>
<path fill="#02a5bf" d="M 189.25,190.71 Q 189.77,191.43 190.56,191.44 Q 195.91,191.48 200.25,192.29 Q 200.67,193.76 201.11,195.22 Q 201.54,196.64 202.62,197.78 Q 206.21,201.59 209.08,205.96 Q 210.65,208.35 213.00,209.25 Q 216.35,210.53 218.24,211.46 A 1.39,0.75 -27.8 0 0 219.14,211.47 Q 219.79,211.29 219.79,212.25 Q 213.61,217.37 206.75,221.54 Q 205.61,220.97 204.43,221.10 A 1.48,1.15 -25.6 0 1 203.51,220.90 Q 197.21,216.58 196.99,208.98 Q 196.90,206.05 196.90,206.03 Q 196.20,199.56 191.10,195.24 A 1.75,1.72 -72.0 0 1 190.50,194.04 Q 190.32,190.97 188.24,191.46 Q 187.29,191.69 186.46,191.25 Q 187.80,190.70 189.25,190.71 Z"/>
<path fill="#04bed4" d="M 186.46,191.25 Q 187.29,191.69 188.24,191.46 Q 190.32,190.97 190.50,194.04 A 1.75,1.72 -72.0 0 0 191.10,195.24 Q 196.20,199.56 196.90,206.03 Q 196.90,206.05 196.99,208.98 Q 197.21,216.58 203.51,220.90 A 1.48,1.15 -25.6 0 0 204.43,221.10 Q 205.61,220.97 206.75,221.54 Q 201.37,225.09 196.71,229.50 Q 192.16,223.36 189.96,216.00 Q 187.20,207.83 186.25,199.24 A 0.58,0.58 78.3 0 0 185.51,198.75 Q 175.85,201.62 167.66,207.46 A 0.85,0.62 -28.6 0 0 167.29,208.24 L 168.21,211.50 Q 170.10,217.78 173.71,223.25 L 173.71,223.50 Q 172.92,223.28 172.25,224.00 Q 169.88,226.53 167.50,229.04 L 167.02,229.12 A 0.78,0.75 66.9 0 1 166.29,228.81 Q 164.21,225.99 161.35,223.97 A 1.48,0.72 -15.0 0 0 160.46,223.80 Q 159.58,223.87 159.06,222.69 Q 158.51,221.41 157.24,221.44 A 1.41,0.74 -13.3 0 1 156.35,221.21 Q 155.20,220.24 156.19,218.69 Q 156.68,217.92 155.75,217.96 Q 162.59,198.66 182.75,192.00 Q 185.33,191.15 186.46,191.25 Z"/>
<path fill="#028fba" d="M 331.00,191.46 Q 337.41,197.73 340.29,206.25 Q 340.41,208.07 339.14,208.75 Q 338.58,209.04 338.37,209.32 L 331.27,218.53 A 0.88,0.71 64.6 0 0 331.12,219.15 Q 331.27,220.27 330.62,219.33 A 0.25,0.22 44.1 0 0 330.23,219.31 L 327.79,223.50 L 326.96,220.25 Q 324.71,214.07 321.21,208.50 Q 322.17,206.46 323.17,204.44 Q 324.05,202.68 325.73,200.80 Q 328.72,197.45 330.94,193.51 A 1.31,0.89 58.9 0 0 330.99,192.60 Q 330.83,192.04 331.00,191.46 Z"/>
<path fill="#0293b5" d="M 200.25,192.29 Q 210.40,194.66 218.01,203.22 A 1.19,1.14 51.8 0 0 219.54,203.44 L 231.00,195.71 Q 234.43,197.81 235.29,201.75 L 219.79,212.25 Q 219.79,211.29 219.14,211.47 A 1.39,0.75 -27.8 0 1 218.24,211.46 Q 216.35,210.53 213.00,209.25 Q 210.65,208.35 209.08,205.96 Q 206.21,201.59 202.62,197.78 Q 201.54,196.64 201.11,195.22 Q 200.67,193.76 200.25,192.29 Z"/>
<path fill="#62e8ef" d="M 258.25,192.54 Q 258.00,193.71 258.81,194.19 Q 264.13,197.36 266.19,197.31 Q 267.46,197.28 267.34,197.77 A 0.39,0.29 -78.1 0 0 267.55,198.24 Q 279.16,199.49 280.04,211.25 L 276.50,212.21 L 266.50,214.96 Q 266.44,214.65 266.49,214.39 A 0.91,0.58 -70.3 0 0 266.31,213.60 Q 264.65,212.22 262.56,211.78 A 1.84,1.79 -16.3 0 1 261.71,211.33 Q 259.66,209.32 256.50,208.50 Q 256.27,208.44 256.20,208.19 A 0.77,0.47 86.0 0 0 255.84,207.68 Q 248.67,204.99 246.81,205.19 Q 243.60,205.54 241.08,203.62 A 1.00,0.90 21.7 0 1 240.68,202.81 L 240.71,202.25 L 258.25,192.54 Z"/>
<path fill="#1ce2e8" d="M 294.75,192.54 Q 301.15,194.23 307.04,197.25 Q 302.91,203.75 299.71,210.75 L 290.00,210.21 Q 289.66,208.93 290.52,208.60 A 1.35,0.69 -10.1 0 0 291.23,208.06 Q 292.75,205.05 292.20,201.76 Q 292.04,200.83 292.24,200.38 Q 292.52,199.71 293.20,199.65 A 0.68,0.51 -0.2 0 0 293.81,199.19 L 294.75,192.54 Z"/>
<path fill="#06cee5" d="M 307.04,197.25 Q 310.46,198.48 313.29,200.75 L 307.00,213.04 L 299.71,210.75 Q 302.91,203.75 307.04,197.25 Z"/>
<path fill="#79eaf0" d="M 189.96,216.00 L 187.46,217.33 A 1.27,0.84 34.0 0 1 186.53,217.32 Q 180.76,215.04 175.21,212.27 Q 173.49,211.42 170.25,210.50 Q 168.62,210.04 168.21,211.50 L 167.29,208.24 A 0.85,0.62 -28.6 0 1 167.66,207.46 Q 175.85,201.62 185.51,198.75 A 0.58,0.58 78.3 0 1 186.25,199.24 Q 187.20,207.83 189.96,216.00 Z"/>
<path fill="#04c2d9" d="M 313.29,200.75 Q 317.69,204.17 321.21,208.50 Q 324.71,214.07 326.96,220.25 L 324.51,221.33 A 1.20,0.92 -88.5 0 0 323.93,222.05 Q 323.13,224.80 320.68,226.26 A 0.55,0.49 57.4 0 1 319.99,226.07 L 316.29,220.50 Q 312.68,215.51 307.00,213.04 L 313.29,200.75 Z"/>
<path fill="#92eaf3" d="M 240.71,202.25 L 240.68,202.81 A 1.00,0.90 21.7 0 0 241.08,203.62 Q 243.60,205.54 246.81,205.19 Q 248.67,204.99 255.84,207.68 A 0.77,0.47 86.0 0 1 256.20,208.19 Q 256.27,208.44 256.50,208.50 Q 259.66,209.32 261.71,211.33 A 1.84,1.79 -16.3 0 0 262.56,211.78 Q 264.65,212.22 266.31,213.60 A 0.91,0.58 -70.3 0 1 266.49,214.39 Q 266.44,214.65 266.50,214.96 L 257.46,218.50 Q 245.67,222.14 235.75,229.46 Q 217.81,239.98 211.56,244.56 Q 205.39,249.09 200.25,250.96 Q 199.94,250.37 199.59,249.80 Q 199.25,249.23 199.21,248.59 Q 198.89,242.54 199.00,236.30 Q 199.04,234.50 200.36,233.29 Q 219.05,216.17 240.71,202.25 Z"/>
<path fill="#026bb7" d="M 340.29,206.25 Q 342.00,210.37 342.81,214.74 Q 346.59,235.34 341.31,254.81 Q 339.36,262.00 335.46,272.50 L 334.72,272.82 A 0.75,0.71 56.1 0 1 333.90,272.64 Q 332.38,271.06 330.44,268.06 Q 327.49,263.52 322.25,259.79 Q 323.14,259.55 323.31,258.81 Q 324.77,252.57 327.06,247.81 Q 327.77,246.35 327.94,243.79 Q 328.12,241.22 328.33,239.73 Q 329.48,231.59 327.79,223.50 L 330.23,219.31 A 0.25,0.22 44.1 0 1 330.62,219.33 Q 331.27,220.27 331.12,219.15 A 0.88,0.71 64.6 0 1 331.27,218.53 L 338.37,209.32 Q 338.58,209.04 339.14,208.75 Q 340.41,208.07 340.29,206.25 Z"/>
<path fill="#9dedf4" d="M 189.96,216.00 Q 192.16,223.36 196.71,229.50 L 197.75,232.46 Q 196.80,232.85 196.03,232.42 Q 194.92,231.80 194.85,231.77 Q 192.16,230.77 189.86,229.11 Q 186.39,226.60 185.18,226.02 Q 181.00,223.99 176.52,222.70 Q 174.81,222.20 173.71,223.25 Q 170.10,217.78 168.21,211.50 Q 168.62,210.04 170.25,210.50 Q 173.49,211.42 175.21,212.27 Q 180.76,215.04 186.53,217.32 A 1.27,0.84 34.0 0 0 187.46,217.33 L 189.96,216.00 Z"/>
<path fill="#0285ad" d="M 290.00,210.21 L 299.71,210.75 L 307.00,213.04 Q 312.68,215.51 316.29,220.50 Q 315.22,222.13 311.69,224.44 Q 299.33,232.48 291.06,236.06 Q 291.46,236.55 289.19,237.55 A 2.31,2.26 40.2 0 1 287.68,237.66 Q 286.30,237.29 286.21,238.75 Q 282.77,234.44 281.73,228.90 A 0.97,0.97 76.3 0 0 280.50,228.15 L 273.50,230.29 Q 272.74,229.06 271.56,229.56 Q 268.79,230.75 267.75,231.04 Q 266.26,231.53 264.75,231.70 Q 264.43,231.74 263.81,231.98 Q 262.86,232.34 263.01,230.95 A 1.24,1.16 9.5 0 0 262.04,229.68 L 258.05,228.83 A 0.66,0.57 -84.1 0 1 257.60,228.19 Q 257.62,226.67 256.32,226.65 Q 255.76,226.64 255.34,226.52 Q 253.88,226.10 253.17,227.24 A 1.37,0.90 -72.7 0 1 252.46,227.82 L 245.25,229.71 Q 248.47,227.50 252.25,226.46 Q 253.98,226.35 256.50,224.75 Q 258.55,223.45 263.26,222.79 Q 269.70,221.89 275.59,219.12 Q 278.61,217.69 277.81,213.94 Q 277.50,212.44 276.50,212.21 L 280.04,211.25 L 290.00,210.21 Z"/>
<path fill="#0273a1" d="M 276.50,212.21 Q 277.50,212.44 277.81,213.94 Q 278.61,217.69 275.59,219.12 Q 269.70,221.89 263.26,222.79 Q 258.55,223.45 256.50,224.75 Q 253.98,226.35 252.25,226.46 Q 253.90,225.08 254.69,224.94 Q 258.23,224.31 257.58,220.68 Q 257.39,219.60 257.46,218.50 L 266.50,214.96 L 276.50,212.21 Z"/>
<path fill="#03aace" d="M 155.75,217.96 Q 156.68,217.92 156.19,218.69 Q 155.20,220.24 156.35,221.21 A 1.41,0.74 -13.3 0 0 157.24,221.44 Q 158.51,221.41 159.06,222.69 Q 159.58,223.87 160.46,223.80 A 1.48,0.72 -15.0 0 1 161.35,223.97 Q 164.21,225.99 166.29,228.81 A 0.78,0.75 66.9 0 0 167.02,229.12 L 167.50,229.04 Q 162.62,234.96 160.21,242.25 Q 159.60,241.68 158.81,241.51 A 0.73,0.70 2.1 0 1 158.26,240.94 Q 158.00,239.37 156.69,239.06 Q 154.27,238.50 153.39,236.77 A 1.15,0.57 70.1 0 0 152.73,236.14 Q 152.40,236.10 152.04,236.25 L 152.21,232.75 L 152.71,227.25 L 155.75,217.96 Z"/>
<path fill="#045a91" d="M 257.46,218.50 Q 257.39,219.60 257.58,220.68 Q 258.23,224.31 254.69,224.94 Q 253.90,225.08 252.25,226.46 Q 248.47,227.50 245.25,229.71 L 239.50,232.96 L 237.75,233.96 Q 238.13,231.10 235.75,229.46 Q 245.67,222.14 257.46,218.50 Z"/>
<path fill="#0291c8" d="M 326.96,220.25 L 327.79,223.50 Q 329.48,231.59 328.33,239.73 Q 328.12,241.22 327.94,243.79 Q 327.77,246.35 327.06,247.81 Q 324.77,252.57 323.31,258.81 Q 323.14,259.55 322.25,259.79 Q 318.97,258.08 312.06,256.19 Q 308.84,255.30 304.54,253.01 Q 297.82,249.44 297.36,249.17 Q 290.67,245.30 286.21,238.75 Q 286.30,237.29 287.68,237.66 A 2.31,2.26 40.2 0 0 289.19,237.55 Q 291.46,236.55 291.06,236.06 Q 299.33,232.48 311.69,224.44 Q 315.22,222.13 316.29,220.50 L 319.99,226.07 A 0.55,0.49 57.4 0 0 320.68,226.26 Q 323.13,224.80 323.93,222.05 A 1.20,0.92 -88.5 0 1 324.51,221.33 L 326.96,220.25 Z"/>
<path fill="#b5f2f8" d="M 197.75,232.46 Q 198.07,232.58 198.04,233.00 Q 197.02,237.30 197.52,241.75 Q 197.94,245.44 196.25,248.71 Q 187.21,242.06 179.75,233.71 L 173.71,223.50 L 173.71,223.25 Q 174.81,222.20 176.52,222.70 Q 181.00,223.99 185.18,226.02 Q 186.39,226.60 189.86,229.11 Q 192.16,230.77 194.85,231.77 Q 194.92,231.80 196.03,232.42 Q 196.80,232.85 197.75,232.46 Z"/>
<path fill="#03bae1" d="M 355.79,228.25 Q 355.22,230.03 356.54,230.00 Q 363.86,249.18 364.03,269.75 Q 364.23,293.50 354.23,314.96 Q 349.90,324.25 344.54,332.95 Q 339.31,341.44 332.73,349.05 Q 320.20,363.52 304.81,375.09 Q 302.54,376.80 303.61,374.48 Q 303.78,374.10 304.10,373.68 Q 312.77,362.19 319.00,349.21 Q 320.17,348.81 320.90,349.39 A 0.84,0.72 50.6 0 0 321.69,349.53 Q 322.91,349.00 325.81,348.56 Q 329.44,348.01 332.59,345.34 Q 334.45,343.75 336.66,339.65 Q 338.35,336.51 340.36,333.57 Q 343.05,329.63 344.12,327.57 Q 350.46,315.39 353.82,302.02 Q 361.76,270.33 354.25,238.50 Q 353.98,237.35 353.04,237.25 Q 353.40,234.69 351.50,232.96 L 352.50,223.73 Q 352.79,221.06 353.81,223.50 L 355.79,228.25 Z"/>
<path fill="#025ca7" d="M 173.71,223.50 L 179.75,233.71 Q 179.01,234.28 179.45,235.05 Q 180.34,236.64 181.25,238.21 Q 180.26,240.92 181.94,243.31 Q 182.53,244.16 182.50,247.71 Q 181.66,247.60 181.50,248.25 Q 180.37,252.84 179.25,256.58 Q 178.37,259.51 176.20,264.64 Q 173.07,272.01 170.69,279.68 Q 170.51,280.27 170.10,279.80 Q 161.35,269.56 157.04,257.50 L 157.37,257.51 A 0.48,0.37 -83.7 0 0 157.75,257.11 Q 158.01,255.65 158.26,254.20 Q 158.46,253.03 158.50,251.28 Q 158.61,246.64 160.21,242.25 Q 162.62,234.96 167.50,229.04 Q 169.88,226.53 172.25,224.00 Q 172.92,223.28 173.71,223.50 Z"/>
<path fill="#0293b5" d="M 267.75,231.04 L 255.50,236.54 L 251.17,236.87 A 1.79,0.73 -46.3 0 0 250.30,237.26 Q 249.16,238.07 247.93,237.60 Q 246.60,237.10 246.51,237.07 Q 244.26,236.52 242.04,235.84 A 1.26,1.10 82.1 0 1 241.35,235.24 Q 240.67,233.90 239.50,232.96 L 245.25,229.71 L 252.46,227.82 A 1.37,0.90 -72.7 0 0 253.17,227.24 Q 253.88,226.10 255.34,226.52 Q 255.76,226.64 256.32,226.65 Q 257.62,226.67 257.60,228.19 A 0.66,0.57 -84.1 0 0 258.05,228.83 L 262.04,229.68 A 1.24,1.16 9.5 0 1 263.01,230.95 Q 262.86,232.34 263.81,231.98 Q 264.43,231.74 264.75,231.70 Q 266.26,231.53 267.75,231.04 Z"/>
<path fill="#b5f2f8" d="M 152.71,227.25 L 152.21,232.75 Q 151.92,231.29 150.79,232.25 L 152.71,227.25 Z"/>
<path fill="#062a6c" d="M 286.21,238.75 Q 290.67,245.30 297.36,249.17 Q 297.82,249.44 304.54,253.01 Q 308.84,255.30 312.06,256.19 Q 318.97,258.08 322.25,259.79 Q 327.49,263.52 330.44,268.06 Q 332.38,271.06 333.90,272.64 A 0.75,0.71 56.1 0 0 334.72,272.82 L 335.46,272.50 L 335.29,273.75 L 323.96,293.25 Q 323.21,292.40 323.16,291.28 Q 323.09,289.63 322.98,289.26 Q 322.03,285.95 320.81,283.69 Q 314.50,271.98 305.28,260.92 Q 304.07,259.47 302.56,257.30 Q 301.27,255.43 299.80,253.68 Q 298.52,252.14 297.98,254.07 Q 297.35,256.32 296.15,258.41 Q 286.66,274.86 273.86,288.85 Q 271.34,291.60 269.40,293.91 Q 267.23,296.49 265.00,299.02 Q 257.46,307.63 265.84,315.41 Q 271.62,320.77 279.44,326.31 Q 284.68,330.03 289.12,335.54 Q 289.44,335.94 288.95,335.88 Q 279.91,334.74 271.44,331.30 Q 270.46,330.90 269.54,331.25 Q 269.57,329.34 267.94,328.30 Q 260.66,323.66 257.29,316.38 Q 254.27,309.84 254.76,301.27 Q 255.11,295.12 257.22,289.29 Q 259.14,284.00 261.02,280.03 Q 263.15,275.53 266.52,271.57 A 0.74,0.73 29.9 0 0 266.20,270.40 Q 264.03,269.63 261.73,269.60 Q 259.78,269.58 257.44,270.64 Q 244.81,276.38 235.88,287.12 Q 232.71,290.93 230.19,296.19 Q 226.38,304.13 224.14,309.87 Q 224.06,310.07 223.94,310.23 Q 223.09,311.31 223.47,309.85 Q 224.27,306.76 224.42,303.56 A 1.15,0.90 27.1 0 0 224.05,302.76 L 221.10,300.12 A 1.08,0.91 -68.9 0 1 220.80,299.25 Q 221.51,293.07 225.21,288.00 L 230.29,281.25 Q 234.25,277.23 238.23,273.23 Q 243.91,267.55 250.59,263.23 Q 254.26,260.86 262.85,256.23 Q 268.95,252.95 275.48,249.94 Q 275.95,249.72 275.45,249.60 Q 272.12,248.83 269.30,247.50 Q 266.99,246.41 266.58,246.10 Q 265.39,245.16 264.89,243.36 A 0.46,0.44 70.6 0 0 264.28,243.05 L 258.75,245.46 L 255.00,246.96 Q 250.85,248.22 246.71,249.51 Q 241.64,251.09 238.61,252.61 Q 231.58,256.14 225.71,261.50 L 219.46,268.50 L 213.20,276.55 Q 211.98,278.12 210.69,276.51 Q 202.85,266.85 193.94,260.31 Q 191.48,258.51 182.67,250.16 Q 182.34,249.84 182.45,250.29 L 184.05,257.09 Q 184.65,259.60 186.51,260.90 Q 190.68,263.81 194.47,267.13 Q 197.59,269.86 201.47,274.41 Q 206.40,280.20 211.29,286.00 Q 212.01,288.57 213.62,290.67 A 1.41,0.82 39.8 0 1 213.94,291.56 Q 213.87,292.10 213.50,292.54 Q 211.06,289.40 208.57,286.29 Q 206.08,283.19 203.17,280.44 Q 197.47,275.08 191.64,269.86 Q 190.94,269.22 190.21,269.75 L 185.13,261.69 A 0.85,0.80 44.1 0 0 183.70,261.67 Q 178.86,270.49 174.63,279.60 Q 174.59,279.67 172.13,284.73 Q 169.76,289.58 168.25,294.79 Q 166.51,293.71 164.69,291.06 Q 156.26,278.78 154.25,265.04 Q 153.55,260.19 153.25,255.29 Q 154.23,253.94 154.04,252.25 Q 155.88,252.80 156.19,254.31 Q 156.70,256.79 157.04,257.50 Q 161.35,269.56 170.10,279.80 Q 170.51,280.27 170.69,279.68 Q 173.07,272.01 176.20,264.64 Q 178.37,259.51 179.25,256.58 Q 180.37,252.84 181.50,248.25 Q 181.66,247.60 182.50,247.71 Q 185.09,250.78 187.31,252.44 Q 196.49,259.30 205.13,268.57 A 0.67,0.67 48.6 0 0 206.04,268.63 Q 211.25,264.44 215.78,260.32 Q 222.03,254.64 225.61,252.19 Q 232.96,247.15 241.00,243.21 L 273.50,230.29 L 280.50,228.15 A 0.97,0.97 76.3 0 1 281.73,228.90 Q 282.77,234.44 286.21,238.75 Z"/>
<path fill="#0293b5" d="M 355.79,228.25 Q 356.52,228.96 356.54,230.00 Q 355.22,230.03 355.79,228.25 Z"/>
<path fill="#064778" d="M 235.75,229.46 Q 238.13,231.10 237.75,233.96 L 225.25,241.71 Q 214.43,248.61 204.03,257.02 A 1.53,1.48 -40.3 0 1 201.96,256.88 L 198.04,252.50 Q 198.91,252.13 199.25,251.21 L 200.25,250.96 Q 205.39,249.09 211.56,244.56 Q 217.81,239.98 235.75,229.46 Z"/>
<path fill="#0293b5" d="M 273.50,230.29 L 241.00,243.21 Q 241.44,242.72 240.75,242.46 Q 247.89,238.91 255.50,236.54 L 267.75,231.04 Q 268.79,230.75 271.56,229.56 Q 272.74,229.06 273.50,230.29 Z"/>
<path fill="#f5fbfc" d="M 152.21,232.75 L 152.04,236.25 Q 151.82,243.28 152.79,250.25 L 153.25,255.29 Q 153.55,260.19 154.25,265.04 Q 156.26,278.78 164.69,291.06 Q 166.51,293.71 168.25,294.79 Q 167.64,295.68 167.46,296.75 Q 164.46,294.50 161.81,290.44 Q 147.35,268.22 146.96,242.25 L 150.79,232.25 Q 151.92,231.29 152.21,232.75 Z"/>
<path fill="#03a0c0" d="M 239.50,232.96 Q 240.67,233.90 241.35,235.24 A 1.26,1.10 82.1 0 0 242.04,235.84 Q 244.26,236.52 246.51,237.07 Q 246.60,237.10 247.93,237.60 Q 249.16,238.07 250.30,237.26 A 1.79,0.73 -46.3 0 1 251.17,236.87 L 255.50,236.54 Q 247.89,238.91 240.75,242.46 L 235.00,245.32 A 1.46,0.67 -36.0 0 1 234.06,245.51 L 230.46,244.47 Q 229.79,244.28 229.50,244.28 Q 226.69,244.37 225.25,241.71 L 237.75,233.96 L 239.50,232.96 Z"/>
<path fill="#04cbe7" d="M 351.50,232.96 Q 353.40,234.69 353.04,237.25 Q 351.67,241.71 351.25,245.50 Q 350.68,250.56 350.01,254.81 Q 349.38,258.72 347.78,263.92 Q 346.17,269.16 344.69,274.44 Q 343.60,278.31 341.96,281.96 Q 338.98,288.58 338.90,288.77 Q 334.92,297.82 328.45,305.36 Q 328.38,305.45 327.82,306.36 Q 327.27,307.27 326.29,306.25 L 324.46,297.50 L 324.29,293.75 Q 331.65,285.10 337.13,275.14 Q 337.18,275.06 337.60,274.57 Q 337.96,274.16 337.50,273.71 Q 340.57,269.57 342.52,264.80 Q 348.82,249.39 351.50,232.96 Z"/>
<path fill="#0c425d" d="M 179.75,233.71 Q 187.21,242.06 196.25,248.71 L 199.25,251.21 Q 198.91,252.13 198.04,252.50 Q 196.19,250.32 193.92,248.59 Q 187.40,243.62 181.25,238.21 Q 180.34,236.64 179.45,235.05 Q 179.01,234.28 179.75,233.71 Z"/>
<path fill="#0685c1" d="M 160.21,242.25 Q 158.61,246.64 158.50,251.28 Q 158.46,253.03 158.26,254.20 Q 158.01,255.65 157.75,257.11 A 0.48,0.37 -83.7 0 1 157.37,257.51 L 157.04,257.50 Q 156.70,256.79 156.19,254.31 Q 155.88,252.80 154.04,252.25 Q 154.14,250.69 152.79,250.25 Q 151.82,243.28 152.04,236.25 Q 152.40,236.10 152.73,236.14 A 1.15,0.57 70.1 0 1 153.39,236.77 Q 154.27,238.50 156.69,239.06 Q 158.00,239.37 158.26,240.94 A 0.73,0.70 2.1 0 0 158.81,241.51 Q 159.60,241.68 160.21,242.25 Z"/>
<path fill="#01a3bc" d="M 353.04,237.25 Q 353.98,237.35 354.25,238.50 Q 361.76,270.33 353.82,302.02 Q 350.46,315.39 344.12,327.57 Q 343.05,329.63 340.36,333.57 Q 338.35,336.51 336.66,339.65 Q 334.45,343.75 332.59,345.34 Q 329.44,348.01 325.81,348.56 Q 322.91,349.00 321.69,349.53 A 0.84,0.72 50.6 0 1 320.90,349.39 Q 320.17,348.81 319.00,349.21 Q 327.73,328.64 326.29,306.25 Q 327.27,307.27 327.82,306.36 Q 328.38,305.45 328.45,305.36 Q 334.92,297.82 338.90,288.77 Q 338.98,288.58 341.96,281.96 Q 343.60,278.31 344.69,274.44 Q 346.17,269.16 347.78,263.92 Q 349.38,258.72 350.01,254.81 Q 350.68,250.56 351.25,245.50 Q 351.67,241.71 353.04,237.25 Z"/>
<path fill="#0ab4d6" d="M 181.25,238.21 Q 187.40,243.62 193.92,248.59 Q 196.19,250.32 198.04,252.50 L 201.96,256.88 A 1.53,1.48 -40.3 0 0 204.03,257.02 Q 214.43,248.61 225.25,241.71 Q 226.69,244.37 229.50,244.28 Q 229.79,244.28 230.46,244.47 L 234.06,245.51 A 1.46,0.67 -36.0 0 0 235.00,245.32 L 240.75,242.46 Q 241.44,242.72 241.00,243.21 Q 232.96,247.15 225.61,252.19 Q 222.03,254.64 215.78,260.32 Q 211.25,264.44 206.04,268.63 A 0.67,0.67 48.6 0 1 205.13,268.57 Q 196.49,259.30 187.31,252.44 Q 185.09,250.78 182.50,247.71 Q 182.53,244.16 181.94,243.31 Q 180.26,240.92 181.25,238.21 Z"/>
<path fill="#06cee5" d="M 146.96,242.25 Q 147.35,268.22 161.81,290.44 Q 164.46,294.50 167.46,296.75 L 165.54,305.75 Q 165.72,304.61 165.29,304.55 A 0.98,0.09 7.6 0 1 164.45,304.36 Q 160.39,300.71 157.93,295.82 Q 149.48,279.00 145.86,259.74 Q 145.62,258.50 145.42,259.74 Q 142.63,276.79 144.27,294.50 Q 144.60,297.97 144.46,301.44 A 0.66,0.61 86.9 0 1 143.95,302.06 Q 143.04,302.21 142.25,301.79 Q 133.12,278.57 141.75,254.75 Q 144.49,247.17 146.96,242.25 Z"/>
<path fill="#048ab3" d="M 230.29,281.25 Q 228.88,278.71 228.92,275.81 A 0.89,0.87 17.3 0 0 228.51,275.05 L 226.21,273.50 Q 234.59,261.87 246.41,253.28 Q 247.07,252.79 246.31,252.49 Q 244.82,251.89 244.00,251.96 L 255.25,247.21 Q 257.59,247.30 258.75,245.46 L 264.28,243.05 A 0.46,0.44 70.6 0 1 264.89,243.36 Q 265.39,245.16 266.58,246.10 Q 266.99,246.41 269.30,247.50 Q 272.12,248.83 275.45,249.60 Q 275.95,249.72 275.48,249.94 Q 268.95,252.95 262.85,256.23 Q 254.26,260.86 250.59,263.23 Q 243.91,267.55 238.23,273.23 Q 234.25,277.23 230.29,281.25 Z"/>
<path fill="#0293b5" d="M 258.75,245.46 Q 257.59,247.30 255.25,247.21 Q 255.21,247.00 255.00,246.96 L 258.75,245.46 Z"/>
<path fill="#f5fbfc" d="M 255.00,246.96 Q 255.21,247.00 255.25,247.21 L 244.00,251.96 Q 238.38,253.83 233.59,257.35 Q 229.95,260.03 225.71,261.50 Q 231.58,256.14 238.61,252.61 Q 241.64,251.09 246.71,249.51 Q 250.85,248.22 255.00,246.96 Z"/>
<path fill="#0896cd" d="M 219.46,268.50 Q 219.09,269.59 219.36,270.58 Q 219.83,272.35 219.85,272.51 Q 220.07,274.70 220.40,276.88 Q 220.42,277.01 220.45,278.12 Q 220.47,279.33 221.71,279.50 L 218.75,282.46 Q 215.45,285.14 211.29,286.00 Q 206.40,280.20 201.47,274.41 Q 197.59,269.86 194.47,267.13 Q 190.68,263.81 186.51,260.90 Q 184.65,259.60 184.05,257.09 L 182.45,250.29 Q 182.34,249.84 182.67,250.16 Q 191.48,258.51 193.94,260.31 Q 202.85,266.85 210.69,276.51 Q 211.98,278.12 213.20,276.55 L 219.46,268.50 Z"/>
<path fill="#045a91" d="M 152.79,250.25 Q 154.14,250.69 154.04,252.25 Q 154.23,253.94 153.25,255.29 L 152.79,250.25 Z"/>
<path fill="#0ab4d6" d="M 244.00,251.96 Q 244.82,251.89 246.31,252.49 Q 247.07,252.79 246.41,253.28 Q 234.59,261.87 226.21,273.50 L 221.71,279.50 Q 220.47,279.33 220.45,278.12 Q 220.42,277.01 220.40,276.88 Q 220.07,274.70 219.85,272.51 Q 219.83,272.35 219.36,270.58 Q 219.09,269.59 219.46,268.50 L 225.71,261.50 Q 229.95,260.03 233.59,257.35 Q 238.38,253.83 244.00,251.96 Z"/>
<path fill="#01a3bc" d="M 165.54,305.75 Q 161.20,328.24 170.61,348.92 Q 171.85,351.64 172.63,354.12 Q 173.13,355.71 172.04,354.45 Q 163.94,345.08 157.68,334.68 Q 152.23,325.64 148.83,318.80 Q 144.77,310.64 142.25,301.79 Q 143.04,302.21 143.95,302.06 A 0.66,0.61 86.9 0 0 144.46,301.44 Q 144.60,297.97 144.27,294.50 Q 142.63,276.79 145.42,259.74 Q 145.62,258.50 145.86,259.74 Q 149.48,279.00 157.93,295.82 Q 160.39,300.71 164.45,304.36 A 0.98,0.09 7.6 0 0 165.29,304.55 Q 165.72,304.61 165.54,305.75 Z"/>
<path fill="#0156b1" d="M 213.50,292.54 Q 214.71,294.90 215.31,297.45 Q 216.30,301.66 216.53,302.47 Q 218.13,308.07 218.24,313.93 Q 218.36,319.97 218.50,325.97 A 0.55,0.54 2.4 0 0 218.99,326.50 Q 230.05,327.72 241.03,325.96 Q 242.82,325.67 250.50,324.50 Q 251.02,324.42 253.00,324.62 Q 253.69,324.68 255.50,324.63 Q 258.88,324.54 259.62,327.22 Q 260.05,328.80 259.02,331.29 Q 255.62,339.53 250.71,347.00 Q 250.22,346.12 249.53,346.26 Q 249.13,346.34 248.67,346.99 Q 246.89,349.53 243.06,351.56 Q 240.94,352.69 239.28,352.23 A 1.01,0.91 32.3 0 0 238.42,352.38 Q 236.06,354.19 233.07,354.63 Q 229.63,355.13 226.42,356.36 Q 223.52,357.47 221.27,357.83 Q 218.83,358.22 215.96,358.78 A 2.29,2.26 51.7 0 1 214.57,358.61 Q 210.58,356.75 206.94,357.69 Q 204.68,358.26 204.04,355.75 Q 215.71,337.22 213.16,316.39 Q 212.08,307.61 207.43,297.70 Q 203.24,288.78 197.65,280.59 Q 193.95,275.15 190.21,269.75 Q 190.94,269.22 191.64,269.86 Q 197.47,275.08 203.17,280.44 Q 206.08,283.19 208.57,286.29 Q 211.06,289.40 213.50,292.54 Z"/>
<path fill="#024295" d="M 269.54,331.25 Q 268.96,349.52 256.79,363.00 Q 256.48,362.17 256.06,362.35 Q 255.22,362.72 255.19,362.72 Q 252.77,362.82 250.58,361.94 Q 248.01,360.90 246.70,360.85 Q 244.12,360.76 241.57,361.11 A 1.34,0.82 -20.6 0 1 240.63,360.93 Q 239.98,360.41 240.94,359.69 Q 241.63,359.17 242.46,357.50 L 250.71,347.00 Q 255.62,339.53 259.02,331.29 Q 260.05,328.80 259.62,327.22 Q 258.88,324.54 255.50,324.63 Q 253.69,324.68 253.00,324.62 Q 251.02,324.42 250.50,324.50 Q 242.82,325.67 241.03,325.96 Q 230.05,327.72 218.99,326.50 A 0.55,0.54 2.4 0 1 218.50,325.97 Q 218.36,319.97 218.24,313.93 Q 218.13,308.07 216.53,302.47 Q 216.30,301.66 215.31,297.45 Q 214.71,294.90 213.50,292.54 Q 213.87,292.10 213.94,291.56 A 1.41,0.82 39.8 0 0 213.62,290.67 Q 212.01,288.57 211.29,286.00 Q 215.45,285.14 218.75,282.46 Q 221.03,283.00 222.00,285.50 Q 222.79,287.55 225.21,288.00 Q 221.51,293.07 220.80,299.25 A 1.08,0.91 -68.9 0 0 221.10,300.12 L 224.05,302.76 A 1.15,0.90 27.1 0 1 224.42,303.56 Q 224.27,306.76 223.47,309.85 Q 223.09,311.31 223.94,310.23 Q 224.06,310.07 224.14,309.87 Q 226.38,304.13 230.19,296.19 Q 232.71,290.93 235.88,287.12 Q 244.81,276.38 257.44,270.64 Q 259.78,269.58 261.73,269.60 Q 264.03,269.63 266.20,270.40 A 0.74,0.73 29.9 0 1 266.52,271.57 Q 263.15,275.53 261.02,280.03 Q 259.14,284.00 257.22,289.29 Q 255.11,295.12 254.76,301.27 Q 254.27,309.84 257.29,316.38 Q 260.66,323.66 267.94,328.30 Q 269.57,329.34 269.54,331.25 Z"/>
<path fill="#0668ad" d="M 226.21,273.50 L 228.51,275.05 A 0.89,0.87 17.3 0 1 228.92,275.81 Q 228.88,278.71 230.29,281.25 L 225.21,288.00 Q 222.79,287.55 222.00,285.50 Q 221.03,283.00 218.75,282.46 L 221.71,279.50 L 226.21,273.50 Z"/>
<path fill="#b5f2f8" d="M 335.29,273.75 L 337.50,273.71 Q 337.96,274.16 337.60,274.57 Q 337.18,275.06 337.13,275.14 Q 331.65,285.10 324.29,293.75 Q 324.25,293.53 324.04,293.50 L 323.96,293.25 L 335.29,273.75 Z"/>
<path fill="#0293b5" d="M 324.04,293.50 Q 324.25,293.53 324.29,293.75 L 324.46,297.50 Q 323.72,295.57 324.04,293.50 Z"/>
<path fill="#0268c3" d="M 250.71,347.00 L 242.46,357.50 Q 237.32,362.56 230.66,365.37 Q 219.11,370.26 207.18,374.15 Q 196.67,377.57 186.67,382.23 Q 185.46,382.79 181.17,384.35 Q 178.10,385.46 175.94,387.19 Q 174.92,388.00 176.00,388.54 Q 167.03,390.55 158.00,392.25 Q 155.01,392.81 154.25,392.71 Q 153.57,392.48 154.00,392.04 Q 161.84,389.58 169.32,386.24 Q 177.11,382.76 183.30,377.85 Q 195.24,368.39 204.04,355.75 Q 204.68,358.26 206.94,357.69 Q 210.58,356.75 214.57,358.61 A 2.29,2.26 51.7 0 0 215.96,358.78 Q 218.83,358.22 221.27,357.83 Q 223.52,357.47 226.42,356.36 Q 229.63,355.13 233.07,354.63 Q 236.06,354.19 238.42,352.38 A 1.01,0.91 32.3 0 1 239.28,352.23 Q 240.94,352.69 243.06,351.56 Q 246.89,349.53 248.67,346.99 Q 249.13,346.34 249.53,346.26 Q 250.22,346.12 250.71,347.00 Z"/>
<path fill="#025ca7" d="M 242.46,357.50 Q 241.63,359.17 240.94,359.69 Q 239.98,360.41 240.63,360.93 A 1.34,0.82 -20.6 0 0 241.57,361.11 Q 244.12,360.76 246.70,360.85 Q 248.01,360.90 250.58,361.94 Q 252.77,362.82 255.19,362.72 Q 255.22,362.72 256.06,362.35 Q 256.48,362.17 256.79,363.00 Q 251.52,370.53 244.50,372.75 Q 214.98,382.08 176.00,388.54 Q 174.92,388.00 175.94,387.19 Q 178.10,385.46 181.17,384.35 Q 185.46,382.79 186.67,382.23 Q 196.67,377.57 207.18,374.15 Q 219.11,370.26 230.66,365.37 Q 237.32,362.56 242.46,357.50 Z"/>
<path fill="#045a91" d="M 154.00,392.04 Q 153.57,392.48 154.25,392.71 Q 149.91,392.98 154.00,392.04 Z"/>
</svg>
